<?xml version="1.0" standalone="no"?>
<!DOCTYPE svg PUBLIC "-//W3C//DTD SVG 20010904//EN"
 "http://www.w3.org/TR/2001/REC-SVG-20010904/DTD/svg10.dtd">
<svg version="1.0" xmlns="http://www.w3.org/2000/svg"
 width="365.000000pt" height="365.000000pt" viewBox="0 0 365.000000 365.000000"
 preserveAspectRatio="xMidYMid meet">
<metadata>
Created by potrace 1.14, written by Peter Selinger 2001-2017
</metadata>
<g transform="translate(0.000000,365.000000) scale(0.100000,-0.100000)"
fill="#000000" stroke="none">
<path d="M1023 3197 l-782 -452 -1 -920 0 -920 771 -445 c423 -245 781 -449
793 -454 21 -8 132 53 810 445 l786 453 0 921 0 920 -781 450 c-429 248 -788
451 -797 452 -9 1 -369 -202 -799 -450z m1560 -42 c583 -336 742 -432 729
-439 -10 -5 -347 -200 -750 -433 -403 -233 -736 -423 -741 -423 -5 0 -346 195
-758 433 l-749 432 746 432 c410 237 753 431 762 430 9 -1 352 -195 761 -432z
m-1508 -930 c380 -219 691 -398 692 -399 1 -1 -409 -240 -666 -387 l-46 -26
-243 421 c-133 231 -294 510 -357 620 -78 133 -108 194 -92 184 12 -8 333
-194 712 -413z m2207 378 c-16 -27 -176 -304 -357 -618 -180 -314 -329 -571
-330 -573 -1 -1 -164 91 -362 205 l-360 207 711 412 c391 227 714 412 718 413
4 1 -5 -20 -20 -46z m-2632 -598 c177 -308 331 -574 341 -590 l18 -30 -107
-61 c-59 -34 -221 -127 -359 -207 l-253 -146 0 827 c0 813 1 826 19 797 10
-16 164 -282 341 -590z m2705 -210 c0 -454 -3 -824 -6 -822 -41 17 -708 411
-706 415 11 21 709 1232 711 1232 0 0 1 -371 1 -825z m-1164 -215 c200 -115
364 -216 364 -222 0 -7 -52 -104 -115 -215 l-115 -202 -500 0 -500 0 -92 162
c-51 89 -106 185 -122 213 l-30 51 367 211 c202 117 369 212 373 212 4 0 170
-94 370 -210z m-1042 -439 c61 -106 110 -195 108 -197 -2 -3 -207 -3 -455 -2
l-451 3 342 197 c187 109 342 196 343 195 0 -1 51 -89 113 -196z m2140 -197
c2 -2 -201 -4 -452 -4 l-456 0 58 98 c31 53 83 142 115 198 l58 101 337 -194
c185 -107 338 -197 340 -199z m-1768 -447 c124 -215 225 -393 223 -395 -2 -3
-1257 718 -1339 769 -30 18 -23 19 430 19 l460 0 226 -393z m758 371 c-19 -37
-431 -751 -444 -770 -9 -14 -47 45 -240 380 -125 218 -230 400 -232 405 -2 4
205 7 462 7 l466 0 -12 -22z m976 14 c-6 -5 -298 -174 -650 -377 -352 -203
-655 -378 -674 -389 l-34 -20 34 60 c19 33 122 212 229 397 l194 337 455 0
c250 0 451 -4 446 -8z"/>
</g>
</svg>
